# Blender v3.1.2 OBJ File: 'cg_project.blend'
# www.blender.org
mtllib base.mtl
o startCube_Cube.036
v -5.500000 -5.500000 3.000000
v -5.500000 -5.500000 4.000000
v -5.500000 5.500000 3.000000
v -5.500000 5.500000 4.000000
v 5.500000 -5.500000 3.000000
v 5.500000 -5.500000 4.000000
v 5.500000 5.500000 3.000000
v 5.500000 5.500000 4.000000
vt 0.751886 0.500741
vt 0.751886 0.535667
vt 0.732240 0.535667
vt 0.732240 0.500741
vt 0.752262 0.499756
vt 0.752262 0.535778
vt 0.731999 0.535778
vt 0.731999 0.499756
vt 0.752895 0.501794
vt 0.752895 0.540057
vt 0.731372 0.540057
vt 0.731372 0.501794
vt 0.753410 0.507199
vt 0.753410 0.544362
vt 0.732505 0.544362
vt 0.732505 0.507199
vt 0.726448 0.490990
vt 0.756361 0.490990
vt 0.756361 0.544169
vt 0.726448 0.544169
vt 0.724411 0.505246
vt 0.759523 0.505246
vt 0.759523 0.567667
vt 0.724411 0.567667
vn -1.0000 0.0000 0.0000
vn 0.0000 1.0000 0.0000
vn 1.0000 0.0000 0.0000
vn 0.0000 -1.0000 0.0000
vn 0.0000 0.0000 -1.0000
vn 0.0000 0.0000 1.0000
usemtl base.001
s off
f 1/1/1 2/2/1 4/3/1 3/4/1
f 3/5/2 4/6/2 8/7/2 7/8/2
f 7/9/3 8/10/3 6/11/3 5/12/3
f 5/13/4 6/14/4 2/15/4 1/16/4
f 3/17/5 7/18/5 5/19/5 1/20/5
f 8/21/6 4/22/6 2/23/6 6/24/6
