# Blender v3.1.2 OBJ File: 'cg_project.blend'
# www.blender.org
mtllib cube006.mtl
o Cube.006_Cube.051
v -5.000000 50.500000 6.000000
v -5.000000 50.500000 7.000000
v -5.000000 65.500000 6.000000
v -5.000000 65.500000 7.000000
v 5.000000 50.500000 6.000000
v 5.000000 50.500000 7.000000
v 5.000000 65.500000 6.000000
v 5.000000 65.500000 7.000000
vt 0.755702 0.490759
vt 0.755702 0.538421
vt 0.728893 0.538421
vt 0.728893 0.490759
vt 0.756565 0.491250
vt 0.756565 0.544288
vt 0.726731 0.544288
vt 0.726731 0.491250
vt 0.755250 0.493044
vt 0.755250 0.536586
vt 0.730757 0.536586
vt 0.730757 0.493044
vt 0.757541 0.486848
vt 0.757541 0.539515
vt 0.727916 0.539515
vt 0.727916 0.486848
vt 0.636915 0.748742
vt 0.730633 0.748742
vt 0.730633 0.915352
vt 0.636915 0.915352
vt 0.728010 0.923935
vt 0.661310 0.923935
vt 0.661310 0.805356
vt 0.728010 0.805356
vn -1.0000 0.0000 0.0000
vn 0.0000 1.0000 0.0000
vn 1.0000 0.0000 0.0000
vn 0.0000 -1.0000 0.0000
vn 0.0000 0.0000 -1.0000
vn 0.0000 0.0000 1.0000
usemtl base.001
s off
f 1/1/1 2/2/1 4/3/1 3/4/1
f 3/5/2 4/6/2 8/7/2 7/8/2
f 7/9/3 8/10/3 6/11/3 5/12/3
f 5/13/4 6/14/4 2/15/4 1/16/4
f 3/17/5 7/18/5 5/19/5 1/20/5
f 8/21/6 4/22/6 2/23/6 6/24/6
