# Blender 3.3.0
# www.blender.org
mtllib cube008.mtl
o Cube.008
v 3.500000 68.500000 3.800000
v 3.500000 68.500000 4.800000
v 3.500000 72.000000 3.800000
v 3.500000 72.000000 4.800000
v 4.500000 68.500000 3.800000
v 4.500000 68.500000 4.800000
v 4.500000 72.000000 3.800000
v 4.500000 72.000000 4.800000
vn -1.0000 -0.0000 -0.0000
vn -0.0000 1.0000 -0.0000
vn 1.0000 -0.0000 -0.0000
vn -0.0000 -1.0000 -0.0000
vn -0.0000 -0.0000 -1.0000
vn -0.0000 -0.0000 1.0000
vt 0.767876 0.469042
vt 0.716043 0.469554
vt 0.768058 0.469453
vt 0.767876 0.561678
vt 0.716043 0.562309
vt 0.716173 0.469744
vt 0.715769 0.469042
vt 0.768005 0.470133
vt 0.768058 0.561886
vt 0.715768 0.561678
vt 0.768005 0.562719
vt 0.716173 0.561892
vt 0.716104 0.470047
vt 0.768218 0.469554
vt 0.716065 0.469453
vt 0.716104 0.561980
vt 0.768218 0.562310
vt 0.768006 0.469744
vt 0.715926 0.470133
vt 0.767816 0.470047
vt 0.716065 0.561886
vt 0.715926 0.562719
vt 0.767816 0.561980
vt 0.768006 0.561892
s 0
usemtl base.001
f 1/1/1 2/4/1 4/10/1 3/7/1
f 3/8/2 4/11/2 8/22/2 7/19/2
f 7/20/3 8/23/3 6/16/3 5/13/3
f 5/14/4 6/17/4 2/5/4 1/2/4
f 3/9/5 7/21/5 5/15/5 1/3/5
f 8/24/6 4/12/6 2/6/6 6/18/6
