# Blender v3.1.2 OBJ File: 'cg_project.blend'
# www.blender.org
mtllib cube004.mtl
o Cube.004_Cube.047
v -0.500000 41.500000 5.000000
v -0.500000 41.500000 6.000000
v -0.500000 42.500000 5.000000
v -0.500000 42.500000 6.000000
v 0.500000 41.500000 5.000000
v 0.500000 41.500000 6.000000
v 0.500000 42.500000 5.000000
v 0.500000 42.500000 6.000000
vt 0.768006 0.469791
vt 0.768006 0.562282
vt 0.715980 0.562282
vt 0.715980 0.469791
vt 0.768008 0.469188
vt 0.768008 0.561783
vt 0.715924 0.561783
vt 0.715924 0.469188
vt 0.768047 0.469513
vt 0.768047 0.562262
vt 0.715876 0.562262
vt 0.715876 0.469513
vt 0.768036 0.469850
vt 0.768036 0.562558
vt 0.715888 0.562558
vt 0.715888 0.469850
vt 0.768019 0.561892
vt 0.716083 0.561892
vt 0.716083 0.469561
vt 0.768019 0.469561
vt 0.768073 0.562011
vt 0.716106 0.562011
vt 0.716106 0.469625
vt 0.768073 0.469625
vn -1.0000 0.0000 0.0000
vn 0.0000 1.0000 0.0000
vn 1.0000 0.0000 0.0000
vn 0.0000 -1.0000 0.0000
vn 0.0000 0.0000 -1.0000
vn 0.0000 0.0000 1.0000
usemtl base.001
s off
f 1/1/1 2/2/1 4/3/1 3/4/1
f 3/5/2 4/6/2 8/7/2 7/8/2
f 7/9/3 8/10/3 6/11/3 5/12/3
f 5/13/4 6/14/4 2/15/4 1/16/4
f 3/17/5 7/18/5 5/19/5 1/20/5
f 8/21/6 4/22/6 2/23/6 6/24/6
