# Blender v3.1.2 OBJ File: 'cg_project.blend'
# www.blender.org
mtllib cube007.mtl
o Cube.007_Cube.056
v 3.500000 66.500000 5.000000
v 3.500000 66.500000 6.000000
v 3.500000 67.500000 5.000000
v 3.500000 67.500000 6.000000
v 4.500000 66.500000 5.000000
v 4.500000 66.500000 6.000000
v 4.500000 67.500000 5.000000
v 4.500000 67.500000 6.000000
vt 0.768245 0.469128
vt 0.768245 0.562817
vt 0.715545 0.562817
vt 0.715545 0.469128
vt 0.768383 0.469273
vt 0.768383 0.562588
vt 0.715893 0.562588
vt 0.715893 0.469273
vt 0.768077 0.469759
vt 0.768077 0.562787
vt 0.715748 0.562787
vt 0.715748 0.469759
vt 0.768142 0.469752
vt 0.768142 0.562444
vt 0.716002 0.562444
vt 0.716002 0.469752
vt 0.767946 0.562613
vt 0.715772 0.562613
vt 0.715772 0.469859
vt 0.767946 0.469859
vt 0.767959 0.562156
vt 0.715956 0.562156
vt 0.715956 0.469705
vt 0.767959 0.469705
vn -1.0000 0.0000 0.0000
vn 0.0000 1.0000 0.0000
vn 1.0000 0.0000 0.0000
vn 0.0000 -1.0000 0.0000
vn 0.0000 0.0000 -1.0000
vn 0.0000 0.0000 1.0000
usemtl base.001
s off
f 1/1/1 2/2/1 4/3/1 3/4/1
f 3/5/2 4/6/2 8/7/2 7/8/2
f 7/9/3 8/10/3 6/11/3 5/12/3
f 5/13/4 6/14/4 2/15/4 1/16/4
f 3/17/5 7/18/5 5/19/5 1/20/5
f 8/21/6 4/22/6 2/23/6 6/24/6
