# Blender v3.1.2 OBJ File: 'cg_project.blend'
# www.blender.org
mtllib evil001.mtl
o Evil.001_Cube.040
v -0.500000 12.750000 4.000000
v -0.500000 12.750000 5.000000
v -0.500000 13.250000 4.000000
v -0.500000 13.250000 5.000000
v 0.500000 12.750000 4.000000
v 0.500000 12.750000 5.000000
v 0.500000 13.250000 4.000000
v 0.500000 13.250000 5.000000
vt 0.501311 0.124621
vt 0.501311 0.376943
vt 0.248988 0.376943
vt 0.248988 0.124621
vt 0.501167 0.374415
vt 0.501167 0.626593
vt 0.248990 0.626593
vt 0.248990 0.374415
vt 0.501563 0.377754
vt 0.249561 0.377754
vt 0.249561 0.125752
vt 0.501563 0.125752
vt 0.500849 0.373985
vt 0.500849 0.624923
vt 0.249912 0.624923
vt 0.249912 0.373985
vt 0.000200 0.000200
vt 0.333134 0.000200
vt 0.333134 0.333134
vt 0.000200 0.333134
vt 0.501075 0.375629
vt 0.250090 0.375629
vt 0.250090 0.124644
vt 0.501075 0.124644
vn -1.0000 0.0000 0.0000
vn 0.0000 1.0000 0.0000
vn 1.0000 0.0000 0.0000
vn 0.0000 -1.0000 0.0000
vn 0.0000 0.0000 -1.0000
vn 0.0000 0.0000 1.0000
usemtl evil.001
s off
f 1/1/1 2/2/1 4/3/1 3/4/1
f 3/5/2 4/6/2 8/7/2 7/8/2
f 7/9/3 8/10/3 6/11/3 5/12/3
f 5/13/4 6/14/4 2/15/4 1/16/4
f 3/17/5 7/18/5 5/19/5 1/20/5
f 8/21/6 4/22/6 2/23/6 6/24/6
