# Blender v3.1.2 OBJ File: 'cg_project.blend'
# www.blender.org
mtllib evil008.mtl
o Evil.008_Cube.060
v 3.500000 78.750000 6.000000
v 3.500000 78.750000 7.000000
v 3.500000 79.250000 6.000000
v 3.500000 79.250000 7.000000
v 4.500000 78.750000 6.000000
v 4.500000 78.750000 7.000000
v 4.500000 79.250000 6.000000
v 4.500000 79.250000 7.000000
vt 0.502032 0.123801
vt 0.502032 0.377866
vt 0.247968 0.377866
vt 0.247968 0.123801
vt 0.503548 0.373952
vt 0.503548 0.627715
vt 0.249785 0.627715
vt 0.249785 0.373952
vt 0.502613 0.378447
vt 0.249053 0.378447
vt 0.249053 0.124887
vt 0.502613 0.124887
vt 0.503035 0.373631
vt 0.503035 0.628035
vt 0.248631 0.628035
vt 0.248631 0.373631
vt 0.000200 0.000200
vt 0.333134 0.000200
vt 0.333134 0.333134
vt 0.000200 0.333134
vt 0.501833 0.377666
vt 0.248167 0.377666
vt 0.248167 0.124001
vt 0.501833 0.124001
vn -1.0000 0.0000 0.0000
vn 0.0000 1.0000 0.0000
vn 1.0000 0.0000 0.0000
vn 0.0000 -1.0000 0.0000
vn 0.0000 0.0000 -1.0000
vn 0.0000 0.0000 1.0000
usemtl evil.001
s off
f 1/1/1 2/2/1 4/3/1 3/4/1
f 3/5/2 4/6/2 8/7/2 7/8/2
f 7/9/3 8/10/3 6/11/3 5/12/3
f 5/13/4 6/14/4 2/15/4 1/16/4
f 3/17/5 7/18/5 5/19/5 1/20/5
f 8/21/6 4/22/6 2/23/6 6/24/6
