# Blender v3.1.2 OBJ File: 'cg_project.blend'
# www.blender.org
mtllib evil006.mtl
o Evil.006_Cube.053
v -3.000000 58.750000 7.000000
v -3.000000 58.750000 9.000000
v -3.000000 59.250000 7.000000
v -3.000000 59.250000 9.000000
v 5.000000 58.750000 7.000000
v 5.000000 58.750000 9.000000
v 5.000000 59.250000 7.000000
v 5.000000 59.250000 9.000000
vt 0.315765 0.564956
vt 0.315765 0.837879
vt 0.288122 0.837879
vt 0.288122 0.564956
vt 0.543380 0.563055
vt 0.543380 0.838834
vt 0.288421 0.838834
vt 0.288421 0.563055
vt 0.544965 0.564139
vt 0.544965 0.838695
vt 0.516403 0.838695
vt 0.516403 0.564139
vt 0.543344 0.564343
vt 0.543344 0.837547
vt 0.288594 0.837547
vt 0.288594 0.564343
vt 0.563118 0.000225
vt 0.844115 0.000225
vt 0.844115 0.499775
vt 0.563118 0.499775
vt 0.543863 0.837245
vt 0.289453 0.837245
vt 0.289453 0.789527
vt 0.543863 0.789527
vn -1.0000 0.0000 0.0000
vn 0.0000 1.0000 0.0000
vn 1.0000 0.0000 0.0000
vn 0.0000 -1.0000 0.0000
vn 0.0000 0.0000 -1.0000
vn 0.0000 0.0000 1.0000
usemtl wall
s off
f 1/1/1 2/2/1 4/3/1 3/4/1
f 3/5/2 4/6/2 8/7/2 7/8/2
f 7/9/3 8/10/3 6/11/3 5/12/3
f 5/13/4 6/14/4 2/15/4 1/16/4
f 3/17/5 7/18/5 5/19/5 1/20/5
f 8/21/6 4/22/6 2/23/6 6/24/6
