# Blender v3.1.2 OBJ File: 'cg_project.blend'
# www.blender.org
mtllib flag.mtl
o Cube.012_Cube.001
v -4.750000 109.949997 10.800000
v -4.750000 109.949997 12.800000
v -4.750000 110.050003 10.800000
v -4.750000 110.050003 12.800000
v 4.750000 109.949997 10.800000
v 4.750000 109.949997 12.800000
v 4.750000 110.050003 10.800000
v 4.750000 110.050003 12.800000
vt 0.333134 0.333533
vt 0.333134 0.666467
vt 0.000200 0.666467
vt 0.000200 0.333533
vt 0.282356 0.901612
vt 0.282356 0.614025
vt 0.838559 0.614025
vt 0.838559 0.901612
vt 0.998166 0.666467
vt 0.665232 0.666467
vt 0.665232 0.333533
vt 0.998166 0.333533
vt 0.653003 0.914717
vt 0.500591 0.914717
vt 0.500591 0.077083
vt 0.653003 0.077083
vt 0.000200 0.000200
vt 0.333134 0.000200
vt 0.333134 0.333134
vt 0.000200 0.333134
vt 0.998166 0.333134
vt 0.665232 0.333134
vt 0.665232 0.000200
vt 0.998166 0.000200
vn -1.0000 0.0000 0.0000
vn 0.0000 1.0000 0.0000
vn 1.0000 0.0000 0.0000
vn 0.0000 -1.0000 0.0000
vn 0.0000 0.0000 -1.0000
vn 0.0000 0.0000 1.0000
usemtl victory
s off
f 1/1/1 2/2/1 4/3/1 3/4/1
f 3/5/2 4/6/2 8/7/2 7/8/2
f 7/9/3 8/10/3 6/11/3 5/12/3
f 5/13/4 6/14/4 2/15/4 1/16/4
f 3/17/5 7/18/5 5/19/5 1/20/5
f 8/21/6 4/22/6 2/23/6 6/24/6
