# Blender v3.1.2 OBJ File: 'cg_project.blend'
# www.blender.org
mtllib portal002.mtl
o portal.002_Cube.004
v 2.500000 96.370003 5.000000
v 2.500000 96.370003 8.679773
v 5.500000 96.370003 5.000000
v 5.500000 96.370003 8.679773
v 2.865439 95.813828 5.365439
v 2.500000 95.491814 5.000000
v 2.865439 95.813828 8.314334
v 2.500000 95.491814 8.679773
v 5.134561 95.813828 5.365439
v 5.500000 95.491814 5.000000
v 5.134561 95.813828 8.314334
v 5.500000 95.491814 8.679773
vt 0.405453 0.780453
vt 0.594547 0.780453
vt 0.594547 0.969547
vt 0.405453 0.969547
vt 0.375000 0.250000
vt 0.625000 0.250000
vt 0.625000 0.500000
vt 0.375000 0.500000
vt 0.875000 0.500000
vt 0.875000 0.719547
vt 0.625000 0.719547
vt 0.375000 0.030453
vt 0.625000 0.030453
vt 0.375000 0.719547
vt 0.625000 1.000000
vt 0.375000 1.000000
vt 0.375000 0.750000
vt 0.625000 0.750000
vt 0.125000 0.500000
vt 0.125000 0.719547
vn 0.0000 -1.0000 0.0000
vn 0.0000 1.0000 0.0000
vn 0.0000 0.0000 1.0000
vn -1.0000 0.0000 0.0000
vn 1.0000 0.0000 0.0000
vn 0.6611 -0.7503 0.0000
vn -0.6611 -0.7503 0.0000
vn 0.0000 -0.7503 0.6611
vn 0.0000 -0.7503 -0.6611
vn 0.0000 0.0000 -1.0000
usemtl victoryPortal
s off
f 9/1/1 11/2/1 7/3/1 5/4/1
f 1/5/2 2/6/2 4/7/2 3/8/2
f 4/7/3 2/9/3 8/10/3 12/11/3
f 6/12/4 8/13/4 2/6/4 1/5/4
f 3/8/5 4/7/5 12/11/5 10/14/5
f 5/4/6 7/3/6 8/15/6 6/16/6
f 11/2/7 9/1/7 10/14/7 12/11/7
f 6/16/8 10/17/8 9/1/8 5/4/8
f 12/18/9 8/15/9 7/3/9 11/2/9
f 1/19/10 3/8/10 10/14/10 6/20/10
