# Blender v3.1.2 OBJ File: 'cg_project.blend'
# www.blender.org
mtllib cube001.mtl
o Cube.001_Cube.044
v -0.500000 5.500000 3.000000
v -0.500000 5.500000 4.000000
v -0.500000 32.500000 3.000000
v -0.500000 32.500000 4.000000
v 0.500000 5.500000 3.000000
v 0.500000 5.500000 4.000000
v 0.500000 32.500000 3.000000
v 0.500000 32.500000 4.000000
vt 0.750979 0.489685
vt 0.750979 0.545000
vt 0.733477 0.545000
vt 0.733477 0.489685
vt 0.749359 0.487957
vt 0.749359 0.527397
vt 0.736880 0.527397
vt 0.736880 0.487957
vt 0.753004 0.481580
vt 0.753004 0.545727
vt 0.732708 0.545727
vt 0.732708 0.481580
vt 0.375000 0.750000
vt 0.625000 0.750000
vt 0.625000 1.000000
vt 0.375000 1.000000
vt 0.619407 0.776583
vt 0.768093 0.776583
vt 0.768093 0.925269
vt 0.619407 0.925269
vt 0.640431 0.778804
vt 0.788466 0.778804
vt 0.788466 0.926839
vt 0.640431 0.926839
vn -1.0000 0.0000 0.0000
vn 0.0000 1.0000 0.0000
vn 1.0000 0.0000 0.0000
vn 0.0000 -1.0000 0.0000
vn 0.0000 0.0000 -1.0000
vn 0.0000 0.0000 1.0000
usemtl base.001
s off
f 1/1/1 2/2/1 4/3/1 3/4/1
f 3/5/2 4/6/2 8/7/2 7/8/2
f 7/9/3 8/10/3 6/11/3 5/12/3
f 5/13/4 6/14/4 2/15/4 1/16/4
f 3/17/5 7/18/5 5/19/5 1/20/5
f 8/21/6 4/22/6 2/23/6 6/24/6
