# Blender v3.1.2 OBJ File: 'cg_project.blend'
# www.blender.org
mtllib cube003.mtl
o Cube.003_Cube.046
v -0.500000 38.500000 4.000000
v -0.500000 38.500000 5.000000
v -0.500000 39.500000 4.000000
v -0.500000 39.500000 5.000000
v 0.500000 38.500000 4.000000
v 0.500000 38.500000 5.000000
v 0.500000 39.500000 4.000000
v 0.500000 39.500000 5.000000
vt 0.768293 0.469281
vt 0.768293 0.562792
vt 0.715693 0.562792
vt 0.715693 0.469281
vt 0.563118 0.999775
vt 0.563118 0.500225
vt 0.844115 0.500225
vt 0.844115 0.999775
vt 0.768344 0.469898
vt 0.768344 0.562292
vt 0.716372 0.562292
vt 0.716372 0.469898
vt 0.768191 0.468871
vt 0.768191 0.561721
vt 0.715963 0.561721
vt 0.715963 0.468871
vt 0.768120 0.562234
vt 0.716297 0.562234
vt 0.716297 0.470104
vt 0.768120 0.470104
vt 0.716102 0.562261
vt 0.716102 0.469528
vt 0.768264 0.469528
vn -1.0000 0.0000 0.0000
vn 0.0000 1.0000 0.0000
vn 1.0000 0.0000 0.0000
vn 0.0000 -1.0000 0.0000
vn 0.0000 0.0000 -1.0000
vn 0.0000 0.0000 1.0000
usemtl base.001
s off
f 1/1/1 2/2/1 4/3/1 3/4/1
f 3/5/2 4/6/2 8/7/2 7/8/2
f 7/9/3 8/10/3 6/11/3 5/12/3
f 5/13/4 6/14/4 2/15/4 1/16/4
f 3/17/5 7/18/5 5/19/5 1/20/5
f 8/10/6 4/21/6 2/22/6 6/23/6
