# Blender v3.1.2 OBJ File: 'cg_project.blend'
# www.blender.org
mtllib cube011.mtl
o Cube.011_Cube.062
v -5.000000 65.500000 6.000000
v -5.000000 65.500000 7.000000
v -5.000000 95.500000 6.000000
v -5.000000 95.500000 7.000000
v -2.000000 65.500000 6.000000
v -2.000000 65.500000 7.000000
v -2.000000 95.500000 6.000000
v -2.000000 95.500000 7.000000
vt 0.756793 0.491681
vt 0.756793 0.541175
vt 0.728953 0.541175
vt 0.728953 0.491681
vt 0.757138 0.490963
vt 0.757138 0.542371
vt 0.728221 0.542371
vt 0.728221 0.490963
vt 0.758220 0.485563
vt 0.758220 0.539885
vt 0.727663 0.539885
vt 0.727663 0.485563
vt 0.281672 0.999775
vt 0.281672 0.500225
vt 0.562669 0.500225
vt 0.562669 0.999775
vt 0.650157 0.747590
vt 0.743953 0.747590
vt 0.743953 0.914338
vt 0.650157 0.914338
vt 0.687140 0.972799
vt 0.610945 0.972799
vt 0.610945 0.837342
vt 0.687140 0.837342
vn -1.0000 0.0000 0.0000
vn 0.0000 1.0000 0.0000
vn 1.0000 0.0000 0.0000
vn 0.0000 -1.0000 0.0000
vn 0.0000 0.0000 -1.0000
vn 0.0000 0.0000 1.0000
usemtl base.001
s off
f 1/1/1 2/2/1 4/3/1 3/4/1
f 3/5/2 4/6/2 8/7/2 7/8/2
f 7/9/3 8/10/3 6/11/3 5/12/3
f 5/13/4 6/14/4 2/15/4 1/16/4
f 3/17/5 7/18/5 5/19/5 1/20/5
f 8/21/6 4/22/6 2/23/6 6/24/6
