# Blender v3.1.2 OBJ File: 'cg_project.blend'
# www.blender.org
mtllib evil002.mtl
o Evil.002_Cube.041
v -0.500000 18.750000 4.000000
v -0.500000 18.750000 5.000000
v -0.500000 19.250000 4.000000
v -0.500000 19.250000 5.000000
v 0.500000 18.750000 4.000000
v 0.500000 18.750000 5.000000
v 0.500000 19.250000 4.000000
v 0.500000 19.250000 5.000000
vt 0.502275 0.124045
vt 0.502275 0.377246
vt 0.249074 0.377246
vt 0.249074 0.124045
vt 0.502384 0.373269
vt 0.502384 0.626689
vt 0.248965 0.626689
vt 0.248965 0.373269
vt 0.502631 0.377624
vt 0.249999 0.377624
vt 0.249999 0.124991
vt 0.502631 0.124991
vt 0.502691 0.373963
vt 0.502691 0.627128
vt 0.249525 0.627128
vt 0.249525 0.373963
vt 0.000200 0.000200
vt 0.333134 0.000200
vt 0.333134 0.333134
vt 0.000200 0.333134
vt 0.501960 0.376973
vt 0.249347 0.376973
vt 0.249347 0.124360
vt 0.501960 0.124360
vn -1.0000 0.0000 0.0000
vn 0.0000 1.0000 0.0000
vn 1.0000 0.0000 0.0000
vn 0.0000 -1.0000 0.0000
vn 0.0000 0.0000 -1.0000
vn 0.0000 0.0000 1.0000
usemtl evil.001
s off
f 1/1/1 2/2/1 4/3/1 3/4/1
f 3/5/2 4/6/2 8/7/2 7/8/2
f 7/9/3 8/10/3 6/11/3 5/12/3
f 5/13/4 6/14/4 2/15/4 1/16/4
f 3/17/5 7/18/5 5/19/5 1/20/5
f 8/21/6 4/22/6 2/23/6 6/24/6
