# Blender v3.1.2 OBJ File: 'cg_project.blend'
# www.blender.org
mtllib evil005.mtl
o Evil.005_Cube.052
v -5.000000 53.750000 7.000000
v -5.000000 53.750000 9.000000
v -5.000000 54.250000 7.000000
v -5.000000 54.250000 9.000000
v 3.000000 53.750000 7.000000
v 3.000000 53.750000 9.000000
v 3.000000 54.250000 7.000000
v 3.000000 54.250000 9.000000
vt 0.313218 0.563875
vt 0.313218 0.838225
vt 0.289113 0.838225
vt 0.289113 0.563875
vt 0.544318 0.562892
vt 0.544318 0.839437
vt 0.288309 0.839437
vt 0.288309 0.562892
vt 0.544307 0.562196
vt 0.544306 0.837989
vt 0.516909 0.837989
vt 0.516909 0.562196
vt 0.544017 0.563134
vt 0.544017 0.838183
vt 0.288229 0.838183
vt 0.288229 0.563134
vt 0.563118 0.000225
vt 0.844115 0.000225
vt 0.844115 0.499775
vt 0.563118 0.499775
vt 0.544803 0.838408
vt 0.288376 0.838408
vt 0.288376 0.790411
vt 0.544803 0.790411
vn -1.0000 0.0000 0.0000
vn 0.0000 1.0000 0.0000
vn 1.0000 0.0000 0.0000
vn 0.0000 -1.0000 0.0000
vn 0.0000 0.0000 -1.0000
vn 0.0000 0.0000 1.0000
usemtl wall
s off
f 1/1/1 2/2/1 4/3/1 3/4/1
f 3/5/2 4/6/2 8/7/2 7/8/2
f 7/9/3 8/10/3 6/11/3 5/12/3
f 5/13/4 6/14/4 2/15/4 1/16/4
f 3/17/5 7/18/5 5/19/5 1/20/5
f 8/21/6 4/22/6 2/23/6 6/24/6
