# Blender v3.1.2 OBJ File: 'cg_project.blend'
# www.blender.org
mtllib player.mtl
o Player_Cube.038
v -0.500000 -0.500000 4.000000
v -0.500000 -0.500000 5.000000
v -0.500000 0.500000 4.000000
v -0.500000 0.500000 5.000000
v 0.500000 -0.500000 4.000000
v 0.500000 -0.500000 5.000000
v 0.500000 0.500000 4.000000
v 0.500000 0.500000 5.000000
vt 0.988565 0.010602
vt 0.988564 0.989398
vt 0.009769 0.989398
vt 0.009769 0.010602
vt 0.986637 0.013363
vt 0.986637 0.988304
vt 0.011696 0.988304
vt 0.011696 0.013363
vt 0.990538 0.009462
vt 0.990538 0.990538
vt 0.009462 0.990538
vt 0.009462 0.009462
vt 0.989290 0.008209
vt 0.989290 0.990124
vt 0.007376 0.990124
vt 0.007376 0.008210
vt 0.000200 0.000200
vt 0.333134 0.000200
vt 0.333134 0.333134
vt 0.000200 0.333134
vt 0.386095 0.757762
vt 0.243905 0.757762
vt 0.243905 0.615571
vt 0.386095 0.615571
vn -1.0000 0.0000 0.0000
vn 0.0000 1.0000 0.0000
vn 1.0000 0.0000 0.0000
vn 0.0000 -1.0000 0.0000
vn 0.0000 0.0000 -1.0000
vn 0.0000 0.0000 1.0000
usemtl player.002
s off
f 1/1/1 2/2/1 4/3/1 3/4/1
f 3/5/2 4/6/2 8/7/2 7/8/2
f 7/9/3 8/10/3 6/11/3 5/12/3
f 5/13/4 6/14/4 2/15/4 1/16/4
f 3/17/5 7/18/5 5/19/5 1/20/5
f 8/21/6 4/22/6 2/23/6 6/24/6
