# Blender v3.1.2 OBJ File: 'cg_project.blend'
# www.blender.org
mtllib win.mtl
o win_Cube.063
v -5.500000 104.500000 5.000000
v -5.500000 104.500000 6.000000
v -5.500000 115.500000 5.000000
v -5.500000 115.500000 6.000000
v 5.500000 104.500000 5.000000
v 5.500000 104.500000 6.000000
v 5.500000 115.500000 5.000000
v 5.500000 115.500000 6.000000
vt 0.754481 0.489116
vt 0.754481 0.532959
vt 0.729820 0.532959
vt 0.729820 0.489116
vt 0.756802 0.488626
vt 0.756802 0.540070
vt 0.727864 0.540070
vt 0.727864 0.488626
vt 0.756527 0.489276
vt 0.756527 0.541070
vt 0.727393 0.541070
vt 0.727393 0.489276
vt 0.757795 0.486762
vt 0.757795 0.542897
vt 0.726219 0.542897
vt 0.726219 0.486762
vt 0.599047 0.820051
vt 0.683507 0.820051
vt 0.683507 0.970201
vt 0.599047 0.970201
vt 0.765122 0.572436
vt 0.719144 0.572436
vt 0.719144 0.490698
vt 0.765122 0.490698
vn -1.0000 0.0000 0.0000
vn 0.0000 1.0000 0.0000
vn 1.0000 0.0000 0.0000
vn 0.0000 -1.0000 0.0000
vn 0.0000 0.0000 -1.0000
vn 0.0000 0.0000 1.0000
usemtl base.001
s off
f 1/1/1 2/2/1 4/3/1 3/4/1
f 3/5/2 4/6/2 8/7/2 7/8/2
f 7/9/3 8/10/3 6/11/3 5/12/3
f 5/13/4 6/14/4 2/15/4 1/16/4
f 3/17/5 7/18/5 5/19/5 1/20/5
f 8/21/6 4/22/6 2/23/6 6/24/6
